<?xml version="1.0" standalone="no"?>
<!DOCTYPE svg PUBLIC "-//W3C//DTD SVG 20010904//EN"
 "http://www.w3.org/TR/2001/REC-SVG-20010904/DTD/svg10.dtd">
<svg version="1.0" xmlns="http://www.w3.org/2000/svg"
 width="200.000000pt" height="200.000000pt" viewBox="0 0 200.000000 200.000000"
 preserveAspectRatio="xMidYMid meet">

<g transform="translate(0.000000,200.000000) scale(0.100000,-0.100000)"
fill="#000000" stroke="none">
<path d="M925 1954 c-165 -21 -267 -51 -382 -114 -231 -124 -399 -335 -473
-591 -28 -94 -38 -306 -20 -415 48 -303 245 -567 524 -704 158 -78 229 -94
426 -94 136 1 178 4 242 22 368 101 649 409 708 776 16 95 8 310 -14 388 -81
295 -270 523 -534 645 -132 62 -358 103 -477 87z m110 -106 c24 -50 26 -51
134 -71 78 -15 85 -15 96 0 10 13 34 17 118 19 100 2 107 1 128 -22 12 -13 29
-24 36 -24 7 0 16 -13 19 -30 4 -16 13 -35 20 -41 18 -15 18 -43 -1 -59 -12
-10 -12 -16 -4 -26 6 -8 9 -20 6 -28 -3 -8 16 -42 45 -78 64 -79 122 -198 149
-307 18 -72 20 -104 16 -220 -4 -118 -8 -147 -35 -224 -74 -215 -236 -393
-437 -482 -138 -61 -343 -82 -494 -50 -130 27 -311 116 -290 141 8 9 5 11 -13
7 -19 -4 -20 -3 -8 7 12 9 11 10 -6 5 -17 -4 -36 10 -92 69 -263 277 -302 680
-96 998 104 161 269 282 454 334 66 18 77 27 96 79 11 31 15 32 124 43 9 1 24
-15 35 -40z m-520 -1518 c3 -5 2 -10 -4 -10 -5 0 -13 5 -16 10 -3 6 -2 10 4
10 5 0 13 -4 16 -10z"/>
<path d="M954 1852 c-35 -3 -43 -8 -57 -37 -10 -21 -12 -37 -7 -40 6 -3 10
-36 10 -72 0 -61 2 -67 35 -100 19 -19 35 -41 35 -49 0 -9 10 -12 35 -9 34 5
35 4 34 -28 -1 -23 -3 -26 -6 -9 -7 38 -20 24 -19 -20 1 -41 -1 -44 -51 -70
-28 -16 -76 -39 -106 -53 l-55 -24 -21 41 c-20 42 -20 63 2 52 7 -3 4 1 -6 9
-14 12 -16 20 -7 41 16 43 12 87 -12 143 -21 48 -25 51 -54 49 -18 -2 -53 -15
-79 -30 -26 -14 -51 -26 -56 -26 -13 0 -49 -52 -43 -62 3 -5 1 -14 -4 -21 -5
-7 -12 -29 -15 -51 -5 -32 -3 -39 13 -43 11 -3 20 -11 20 -18 0 -14 44 -25
104 -25 23 0 47 -5 54 -12 8 -8 12 -8 12 -1 0 6 11 13 25 16 26 4 46 -16 44
-45 0 -7 -5 -2 -11 12 -10 24 -10 24 -18 5 -5 -14 -3 -24 8 -32 14 -12 14 -14
-4 -28 -10 -8 -45 -27 -76 -42 -32 -15 -60 -35 -63 -43 -2 -8 -18 -85 -36
-170 -28 -139 -34 -158 -61 -182 -16 -16 -27 -32 -23 -38 3 -5 -9 -34 -26 -65
l-32 -56 18 -40 c10 -22 23 -43 28 -46 6 -3 7 -1 3 5 -4 7 -2 12 4 12 11 0 7
-27 -11 -84 -20 -64 -4 -121 50 -175 14 -14 22 -16 31 -8 10 9 12 8 7 -5 -8
-23 11 -35 58 -36 86 -2 135 -13 136 -30 0 -14 2 -13 9 3 l9 20 0 -20 c0 -11
-4 -27 -9 -35 -7 -11 -10 -11 -10 -2 0 7 -4 10 -10 7 -5 -3 -10 -13 -10 -21 0
-8 5 -12 10 -9 6 3 10 0 10 -7 0 -7 12 7 26 32 14 25 26 46 27 47 1 1 49 -2
105 -7 79 -7 109 -14 129 -29 14 -12 30 -18 35 -15 5 3 9 0 7 -7 -3 -29 1 -38
18 -32 12 5 14 3 8 -8 -6 -11 -5 -11 5 -2 10 9 8 17 -9 39 -11 15 -21 30 -21
33 0 4 28 4 63 0 34 -3 68 -4 74 -1 7 2 18 23 23 46 44 171 51 185 112 241 47
42 59 58 55 77 -4 21 -4 21 -6 -4 -1 -27 -21 -51 -21 -26 -1 7 -7 1 -15 -13
-18 -34 -40 -43 -42 -18 -1 10 4 18 10 16 8 -1 12 13 13 40 1 54 9 64 18 22 3
-18 9 -30 11 -27 8 8 -27 132 -40 140 -6 5 -6 8 3 8 9 0 9 7 -3 30 -9 16 -11
30 -6 30 5 0 7 9 4 19 -3 12 -11 17 -19 14 -15 -6 -18 14 -8 42 5 13 8 14 15
3 6 -9 9 -9 9 -1 0 20 -18 24 -34 7 -18 -17 -21 -71 -6 -94 8 -12 10 -12 10 5
1 17 3 15 16 -8 16 -30 10 -53 -6 -27 -6 8 -10 10 -10 5 0 -6 7 -20 15 -32 9
-12 11 -24 6 -27 -13 -8 -55 82 -55 120 -1 20 -5 30 -13 27 -6 -3 -22 3 -36
11 -27 19 -36 76 -11 76 8 0 14 9 14 20 0 25 -35 27 -68 4 -13 -9 -37 -14 -60
-12 -43 3 -42 -1 -23 148 18 146 42 284 51 293 8 9 2 47 -7 47 -3 0 -22 -10
-41 -22 -26 -16 -34 -18 -30 -7 3 9 3 34 -2 57 -6 33 -4 42 7 42 10 0 11 5 4
18 -6 11 -6 24 0 33 5 7 9 32 9 55 0 37 -8 58 -64 159 -9 16 -19 19 -52 17z
m22 -33 c3 -6 1 -16 -6 -22 -9 -9 -11 -8 -8 3 2 10 -3 14 -16 12 -11 -2 -15 1
-11 7 8 14 32 14 41 0z m-258 -195 c38 -11 27 -102 -15 -118 -15 -6 -15 -5 -1
11 33 39 27 86 -14 103 -26 10 -5 13 30 4z m-64 -50 c3 -8 2 -12 -4 -9 -12 8
-50 -12 -50 -27 0 -6 9 -8 22 -5 20 6 20 5 5 -11 -16 -15 -18 -15 -33 0 -15
15 -15 18 9 42 30 30 42 32 51 10z m35 -25 c-14 -26 -18 -24 -17 11 1 24 4 28
14 19 10 -8 11 -16 3 -30z m-116 -7 c-4 -32 -2 -40 18 -50 22 -12 22 -12 -10
-7 -19 3 -36 7 -38 9 -4 4 27 86 32 86 2 0 1 -17 -2 -38z m42 -92 c4 -6 -8
-10 -30 -10 -22 0 -34 4 -30 10 3 6 17 10 30 10 13 0 27 -4 30 -10z m348 -132
c70 -37 72 -146 4 -220 -37 -40 -100 -64 -143 -54 -39 10 -94 68 -94 100 0 61
57 156 105 176 30 13 103 12 128 -2z m237 -296 c0 -14 -39 -46 -47 -39 -3 4 2
16 12 27 19 21 35 26 35 12z m-308 -23 c15 -8 37 -8 84 1 51 10 67 10 79 0 25
-21 17 -25 -48 -26 -67 -1 -137 -19 -137 -35 0 -13 14 -11 28 3 9 9 12 9 12
-1 0 -17 -64 -42 -124 -46 -28 -3 -43 -2 -33 1 17 5 24 24 10 24 -15 0 -118
-42 -132 -53 -12 -10 -13 -8 -9 10 l6 22 -44 -22 c-24 -11 -39 -24 -33 -27 6
-4 -2 -20 -20 -39 -32 -35 -39 -51 -20 -51 8 0 8 -4 2 -12 -5 -7 -9 -30 -8
-50 2 -38 -7 -49 -21 -26 -4 6 -2 14 5 16 9 3 9 7 0 18 -9 11 -8 18 1 29 7 9
10 18 7 22 -4 3 -13 -9 -20 -27 -9 -20 -17 -28 -21 -21 -7 11 46 115 65 126
14 9 11 27 -3 20 -7 -4 1 5 17 19 35 30 89 50 112 42 20 -8 83 14 83 30 0 19
28 36 78 50 60 16 59 16 84 3z m208 -19 c0 -5 -4 -10 -10 -10 -5 0 -10 5 -10
10 0 6 5 10 10 10 6 0 10 -4 10 -10z m40 -6 c0 -12 7 -15 29 -12 22 3 28 1 24
-10 -5 -11 -24 -13 -84 -10 -43 2 -83 8 -90 15 -8 8 3 10 45 6 48 -4 55 -3 50
11 -4 11 -1 16 10 16 9 0 16 -7 16 -16z m-131 -28 c-12 -10 -79 -16 -79 -6 0
5 19 10 42 10 23 0 39 -2 37 -4z m55 -43 c-4 -27 -3 -27 4 -3 7 22 14 25 56
26 45 1 76 -14 76 -37 0 -6 4 -7 10 -4 33 20 92 -77 86 -143 -1 -19 3 -44 9
-56 9 -18 3 -48 -35 -176 l-47 -155 -11 49 c-6 27 -8 56 -4 64 3 9 1 13 -5 9
-6 -4 -18 11 -28 32 -9 22 -37 61 -62 87 -24 27 -42 44 -38 37 4 -8 -5 -15
-22 -19 -48 -10 -50 -13 -6 -11 23 1 43 -2 43 -8 1 -5 11 -13 22 -18 27 -10
20 -16 -33 -27 -44 -9 -44 -9 10 -4 46 4 53 3 48 -10 -4 -10 -1 -16 8 -16 26
0 16 -19 -12 -23 -26 -4 -26 -4 5 -6 17 0 32 -3 32 -5 0 -2 3 -11 6 -19 4 -11
-2 -17 -18 -20 -21 -4 -20 -4 5 -6 38 -2 34 -19 -5 -24 -32 -4 -32 -4 5 -5 45
-2 50 -21 5 -23 -32 -2 -32 -2 7 -9 l40 -7 -35 -3 -35 -3 35 -7 c19 -4 28 -8
20 -9 -13 -1 -13 -2 0 -11 10 -7 -11 -10 -69 -10 -78 0 -83 1 -78 19 3 12 -1
22 -10 25 -11 5 -14 17 -11 46 l4 40 -41 -1 c-22 -1 -32 -3 -22 -6 9 -2 17
-10 17 -16 0 -8 3 -8 9 1 7 11 9 10 14 -3 4 -9 3 -13 -2 -10 -15 8 -25 -15
-12 -28 17 -17 14 -57 -5 -57 -8 0 -57 5 -108 11 -91 12 -94 13 -94 38 0 32
23 71 44 71 8 0 12 4 9 10 -3 5 1 23 10 39 29 58 17 82 -30 60 -17 -8 -16 -9
8 -6 28 4 34 -7 17 -33 -8 -13 -10 -12 -10 3 0 10 -4 15 -10 12 -5 -3 -10 -17
-10 -30 0 -14 -14 -35 -37 -56 -31 -27 -37 -38 -34 -66 l3 -35 -69 7 c-115 11
-120 18 -60 82 26 28 28 33 14 39 -23 9 -78 -38 -66 -57 13 -21 11 -26 -13
-25 -15 1 -29 15 -45 45 -41 78 -32 90 87 121 36 10 117 32 180 50 63 18 137
37 165 44 l49 11 13 75 c21 130 34 180 47 180 9 0 12 -10 10 -27z m177 0 c13
-15 12 -15 -8 -4 -24 12 -29 21 -14 21 5 0 15 -7 22 -17z m-531 -17 c0 -2 -7
-7 -16 -10 -8 -3 -12 -2 -9 4 6 10 25 14 25 6z m-51 -32 c-16 -19 -83 -54
-104 -54 -28 0 -7 17 45 36 27 10 50 22 50 26 0 4 5 8 11 8 8 0 7 -5 -2 -16z
m681 -159 c15 -47 0 -70 -16 -24 -15 42 -17 59 -5 59 5 0 15 -16 21 -35z
m-562 -280 c-6 -14 -13 -23 -15 -21 -5 5 15 46 22 46 3 0 -1 -11 -7 -25z m286
-115 c16 -20 14 -19 -12 4 -17 17 -32 37 -32 45 1 12 3 11 12 -4 6 -11 20 -31
32 -45z"/>
<path d="M852 1273 c-16 -6 -84 -151 -77 -164 10 -15 35 -10 42 9 14 37 91 64
119 41 11 -9 17 -9 29 1 24 20 18 34 -34 78 -50 42 -55 45 -79 35z m35 -60 c4
-10 -26 -27 -34 -20 -2 2 -1 12 3 21 7 18 25 17 31 -1z"/>
<path d="M800 967 c-54 -17 -60 -22 -37 -25 15 -2 27 -9 27 -17 0 -10 7 -11
35 -2 19 6 35 15 35 20 0 6 7 19 17 29 22 24 7 23 -77 -5z"/>
<path d="M1030 650 c-12 -8 -10 -10 8 -10 13 0 20 4 17 10 -7 12 -6 12 -25 0z"/>
<path d="M1138 630 c-7 -24 -3 -38 8 -28 3 4 4 17 2 30 l-3 23 -7 -25z"/>
<path d="M988 633 c7 -3 16 -2 19 1 4 3 -2 6 -13 5 -11 0 -14 -3 -6 -6z"/>
<path d="M805 610 c-13 -5 -14 -9 -5 -9 8 0 24 4 35 9 13 5 14 9 5 9 -8 0 -24
-4 -35 -9z"/>
<path d="M715 585 c-39 -14 -40 -14 -5 -8 41 7 82 22 60 22 -8 0 -33 -7 -55
-14z"/>
<path d="M968 593 c6 -2 18 -2 25 0 6 3 1 5 -13 5 -14 0 -19 -2 -12 -5z"/>
<path d="M1182 560 c0 -14 2 -19 5 -12 2 6 2 18 0 25 -3 6 -5 1 -5 -13z"/>
<path d="M648 563 c7 -3 16 -2 19 1 4 3 -2 6 -13 5 -11 0 -14 -3 -6 -6z"/>
<path d="M528 473 c7 -3 16 -2 19 1 4 3 -2 6 -13 5 -11 0 -14 -3 -6 -6z"/>
<path d="M638 423 c7 -3 16 -2 19 1 4 3 -2 6 -13 5 -11 0 -14 -3 -6 -6z"/>
<path d="M693 383 c9 -2 23 -2 30 0 6 3 -1 5 -18 5 -16 0 -22 -2 -12 -5z"/>
<path d="M1390 1770 c-8 -5 -34 -10 -56 -10 -37 0 -43 -4 -54 -30 -7 -16 -17
-30 -22 -30 -6 0 -7 -8 -3 -17 8 -17 22 -105 28 -163 1 -14 5 -27 9 -30 4 -3
2 -22 -4 -42 -11 -37 -11 -37 -40 -22 -25 13 -28 13 -28 -1 0 -9 5 -13 11 -9
8 4 9 -4 5 -27 l-6 -34 14 29 c8 18 16 25 20 17 10 -15 -11 -76 -30 -92 -13
-11 -14 -9 -8 17 7 25 6 27 -8 14 -15 -16 -43 -138 -34 -148 3 -3 6 2 6 11 0
21 58 87 76 87 8 0 14 7 14 15 0 8 5 25 12 39 14 31 38 18 32 -17 -4 -18 -3
-19 4 -4 7 17 9 17 21 3 7 -8 10 -20 6 -25 -3 -7 0 -8 9 -5 16 6 20 -3 17 -41
-2 -16 0 -17 8 -6 7 11 10 10 13 -5 2 -12 6 -15 11 -7 4 6 -13 37 -41 73 -66
86 -69 92 -56 97 7 2 10 13 7 23 -6 24 22 56 33 38 5 -8 10 -6 14 8 4 10 12
20 19 20 6 1 19 2 30 3 10 0 42 17 70 36 28 19 56 35 62 35 8 0 8 4 -1 15 -10
12 -9 20 5 41 15 23 15 27 1 43 -9 10 -16 26 -16 35 0 12 -5 16 -15 12 -10 -4
-19 2 -25 18 -5 15 -19 25 -37 28 -15 3 -35 8 -43 11 -8 4 -22 2 -30 -3z m66
-57 c-1 -2 -18 0 -36 4 -28 5 -31 8 -15 13 17 6 60 -9 51 -17z m-123 -23 c-3
-12 2 -29 13 -42 19 -21 19 -21 -6 -8 -46 23 -50 30 -32 50 23 24 31 24 25 0z
m84 -7 c-9 -2 -14 -9 -11 -15 4 -6 -1 -8 -11 -6 -34 6 -29 28 7 27 18 -1 25
-3 15 -6z m43 -32 c0 -11 -31 -24 -39 -16 -3 3 1 10 9 15 19 12 30 12 30 1z
m30 -46 c-9 -11 -30 -15 -72 -14 -42 2 -63 -2 -69 -12 -7 -11 -9 -11 -9 3 0
21 31 31 68 23 16 -3 39 -1 53 4 35 14 43 13 29 -4z m-204 -249 c-9 -23 -31
-56 -48 -72 l-32 -29 32 38 c18 21 38 58 44 83 7 25 14 40 16 34 2 -6 -3 -31
-12 -54z"/>
<path d="M1166 1482 c-2 -4 -7 -37 -10 -72 -4 -54 -4 -58 4 -25 19 82 21 122
6 97z"/>
<path d="M1202 1440 c0 -14 2 -19 5 -12 2 6 2 18 0 25 -3 6 -5 1 -5 -13z"/>
<path d="M1191 1394 c0 -11 3 -14 6 -6 3 7 2 16 -1 19 -3 4 -6 -2 -5 -13z"/>
<path d="M1142 1315 c0 -16 2 -22 5 -12 2 9 2 23 0 30 -3 6 -5 -1 -5 -18z"/>
<path d="M1417 1216 c-4 -9 -3 -15 2 -12 12 8 23 -41 16 -67 -5 -17 -4 -19 4
-7 10 13 11 13 11 0 1 -27 -83 -290 -90 -285 -8 5 18 -77 27 -85 4 -3 3 3 0
12 -3 9 19 99 49 199 53 174 59 216 31 206 -6 -2 -19 9 -28 26 -13 24 -17 27
-22 13z"/>
<path d="M1171 1164 c0 -11 3 -14 6 -6 3 7 2 16 -1 19 -3 4 -6 -2 -5 -13z"/>
<path d="M1297 1094 c-4 -4 -7 -17 -7 -28 1 -19 1 -20 11 -3 11 19 8 43 -4 31z"/>
<path d="M1251 1074 c0 -11 3 -14 6 -6 3 7 2 16 -1 19 -3 4 -6 -2 -5 -13z"/>
<path d="M1329 1044 l-24 -27 33 17 c18 9 30 21 27 26 -8 13 -8 13 -36 -16z"/>
<path d="M1335 990 c3 -5 13 -10 21 -10 8 0 14 5 14 10 0 6 -9 10 -21 10 -11
0 -17 -4 -14 -10z"/>
</g>
</svg>
